<?xml version="1.0" standalone="no"?>
<!DOCTYPE svg PUBLIC "-//W3C//DTD SVG 20010904//EN"
 "http://www.w3.org/TR/2001/REC-SVG-20010904/DTD/svg10.dtd">
<svg version="1.0" xmlns="http://www.w3.org/2000/svg"
 width="500.000000pt" height="500.000000pt" viewBox="0 0 500.000000 500.000000"
 preserveAspectRatio="xMidYMid meet">
<metadata>
Created by potrace 1.11, written by Peter Selinger 2001-2013
</metadata>
<g transform="translate(0.000000,500.000000) scale(0.100000,-0.100000)"
fill="#000000" stroke="none">
<path d="M1236 3989 c-590 -76 -1041 -549 -1142 -1200 -26 -164 -24 -454 4
-609 105 -584 487 -1000 1022 -1116 112 -24 366 -25 495 -1 395 73 661 289
840 681 l34 76 -70 36 c-40 19 -75 32 -78 27 -4 -4 -16 -28 -26 -53 -54 -126
-160 -277 -251 -358 -105 -93 -255 -167 -395 -192 -101 -18 -272 -14 -364 10
-370 94 -635 426 -732 915 -25 129 -25 524 0 680 78 473 275 774 586 894 98
38 173 51 285 51 168 0 294 -49 417 -159 141 -128 252 -339 335 -638 l28 -103
79 0 79 0 -7 498 c-4 273 -9 500 -12 505 -2 4 -38 7 -79 7 l-75 0 -40 -65
c-23 -36 -44 -65 -47 -65 -3 0 -45 20 -93 45 -115 59 -274 112 -396 130 -106
16 -287 18 -397 4z"/>
<path d="M2724 3926 c-3 -7 -4 -37 -2 -67 3 -60 -5 -56 143 -79 163 -25 224
-65 244 -160 8 -35 11 -384 11 -1109 0 -1176 2 -1130 -65 -1190 -42 -37 -80
-48 -212 -63 l-103 -12 0 -68 0 -68 605 0 605 0 0 69 0 68 -83 6 c-45 3 -116
13 -157 23 -61 13 -82 24 -111 53 -56 56 -59 85 -59 580 l0 438 253 6 c206 4
270 9 352 27 311 67 557 236 671 462 94 186 117 453 53 624 -96 255 -342 420
-689 463 -52 7 -350 11 -768 11 -569 0 -684 -2 -688 -14z m1300 -170 c182 -50
308 -182 362 -381 24 -91 30 -282 10 -384 -39 -209 -173 -365 -368 -429 -82
-26 -251 -44 -383 -40 l-100 3 -3 615 c-1 338 0 621 3 629 8 20 396 9 479 -13z"/>
</g>
</svg>
